<svg width="18" height="18" viewBox="0 0 18 18" fill="none" xmlns="http://www.w3.org/2000/svg">
    <path d="M5.75 2.75V0.75" stroke="#1E4477" stroke-width="1.5" stroke-linecap="round" stroke-linejoin="round" />
    <path d="M12.25 2.75V0.75" stroke="#1E4477" stroke-width="1.5" stroke-linecap="round" stroke-linejoin="round" />
    <path d="M13.75 2.75H4.25C3.14543 2.75 2.25 3.64543 2.25 4.75V13.25C2.25 14.3546 3.14543 15.25 4.25 15.25H13.75C14.8546 15.25 15.75 14.3546 15.75 13.25V4.75C15.75 3.64543 14.8546 2.75 13.75 2.75Z" stroke="#1E4477" stroke-width="1.5" stroke-linecap="round" stroke-linejoin="round" />
    <path d="M2.25 6.25H15.75" stroke="#1E4477" stroke-width="1.5" stroke-linecap="round" stroke-linejoin="round" />
    <path d="M11.25 11.75C11.8023 11.75 12.25 11.3023 12.25 10.75C12.25 10.1977 11.8023 9.75 11.25 9.75C10.6977 9.75 10.25 10.1977 10.25 10.75C10.25 11.3023 10.6977 11.75 11.25 11.75Z" fill="#1E4477" stroke="#1E4477" stroke-width="1.5" stroke-linecap="round" stroke-linejoin="round" />
</svg>
